<svg width="600" height="400" xmlns="http://www.w3.org/2000/svg">
<rect width="100%" height="100%" fill="white"/>
<line x1="60" y1="340" x2="540" y2="340" stroke="black" stroke-width="2"/>
<line x1="60" y1="340" x2="60" y2="60" stroke="black" stroke-width="2"/>
<circle cx="60.013950892857146" cy="339.62666666666667" r="4" fill="#0072BD"/>
<text x="60.013950892857146" y="324.62666666666667" font-family="Arial" font-size="10" text-anchor="middle">N=100</text>
<circle cx="60.111607142857146" cy="339.00444444444446" r="4" fill="#0072BD"/>
<text x="60.111607142857146" y="324.00444444444446" font-family="Arial" font-size="10" text-anchor="middle">N=200</text>
<circle cx="60.892857142857146" cy="336.5777777777778" r="4" fill="#0072BD"/>
<text x="60.892857142857146" y="321.5777777777778" font-family="Arial" font-size="10" text-anchor="middle">N=400</text>
<circle cx="67.14285714285714" cy="326.0622222222222" r="4" fill="#0072BD"/>
<text x="67.14285714285714" y="311.0622222222222" font-family="Arial" font-size="10" text-anchor="middle">N=800</text>
<circle cx="117.14285714285714" cy="280.0177777777778" r="4" fill="#0072BD"/>
<text x="117.14285714285714" y="265.0177777777778" font-family="Arial" font-size="10" text-anchor="middle">N=1600</text>
<circle cx="517.1428571428571" cy="71.19999999999999" r="4" fill="#0072BD"/>
<text x="517.1428571428571" y="56.19999999999999" font-family="Arial" font-size="10" text-anchor="middle">N=3200</text>
<polyline points="60.013950892857146,339.62666666666667 60.111607142857146,339.00444444444446 60.892857142857146,336.5777777777778 67.14285714285714,326.0622222222222 117.14285714285714,280.0177777777778 517.1428571428571,71.19999999999999" fill="none" stroke="#0072BD" stroke-width="2"/>
<line x1="60.0" y1="340" x2="60.0" y2="345" stroke="black"/>
<text x="60.0" y="360" font-family="Arial" font-size="12" text-anchor="middle">0</text>
<line x1="180.0" y1="340" x2="180.0" y2="345" stroke="black"/>
<text x="180.0" y="360" font-family="Arial" font-size="12" text-anchor="middle">0.9e10</text>
<line x1="300.0" y1="340" x2="300.0" y2="345" stroke="black"/>
<text x="300.0" y="360" font-family="Arial" font-size="12" text-anchor="middle">1.7e10</text>
<line x1="420.0" y1="340" x2="420.0" y2="345" stroke="black"/>
<text x="420.0" y="360" font-family="Arial" font-size="12" text-anchor="middle">2.6e10</text>
<line x1="540.0" y1="340" x2="540.0" y2="345" stroke="black"/>
<text x="540.0" y="360" font-family="Arial" font-size="12" text-anchor="middle">3.4e10</text>
<line x1="60" y1="340.0" x2="55" y2="340.0" stroke="black"/>
<text x="50" y="344.0" font-family="Arial" font-size="12" text-anchor="end">0.0</text>
<line x1="60" y1="284.0" x2="55" y2="284.0" stroke="black"/>
<text x="50" y="288.0" font-family="Arial" font-size="12" text-anchor="end">0.9</text>
<line x1="60" y1="228.0" x2="55" y2="228.0" stroke="black"/>
<text x="50" y="232.0" font-family="Arial" font-size="12" text-anchor="end">1.8</text>
<line x1="60" y1="172.0" x2="55" y2="172.0" stroke="black"/>
<text x="50" y="176.0" font-family="Arial" font-size="12" text-anchor="end">2.7</text>
<line x1="60" y1="116.0" x2="55" y2="116.0" stroke="black"/>
<text x="50" y="120.0" font-family="Arial" font-size="12" text-anchor="end">3.6</text>
<line x1="60" y1="60.0" x2="55" y2="60.0" stroke="black"/>
<text x="50" y="64.0" font-family="Arial" font-size="12" text-anchor="end">4.5</text>
<text x="300.0" y="395" font-family="Arial" font-size="12" text-anchor="middle">N^3</text>
<text x="15" y="200.0" font-family="Arial" font-size="12" text-anchor="middle" transform="rotate(-90 15, 200.0)">Time (s)</text>
<text x="300.0" y="30" font-family="Arial" font-size="16" text-anchor="middle">Time vs N^3 (Linear)</text>
</svg>