<svg width="600" height="400" xmlns="http://www.w3.org/2000/svg">
<rect width="100%" height="100%" fill="white"/>
<line x1="80" y1="320" x2="520" y2="320" stroke="black" stroke-width="2"/>
<line x1="80" y1="320" x2="80" y2="80" stroke="black" stroke-width="2"/>
<circle cx="80.0" cy="318.0771022377909" r="4" fill="#0072BD"/>
<text x="80.0" y="308.0771022377909" font-family="Arial" font-size="10" text-anchor="middle">N=200</text>
<circle cx="80.77339456503292" cy="316.35543796232463" r="4" fill="#0072BD"/>
<circle cx="82.24590256479375" cy="313.34811529933484" r="4" fill="#0072BD"/>
<circle cx="84.67105556903114" cy="309.602936518288" r="4" fill="#0072BD"/>
<circle cx="88.24809067724959" cy="304.9298477705938" r="4" fill="#0072BD"/>
<circle cx="100.0487183780761" cy="292.43101231623467" r="4" fill="#0072BD"/>
<circle cx="119.19106008284021" cy="279.66386554621846" r="4" fill="#0072BD"/>
<text x="119.19106008284021" y="269.66386554621846" font-family="Arial" font-size="10" text-anchor="middle">N=1000</text>
<circle cx="147.88796954836099" cy="260.1889358847752" r="4" fill="#0072BD"/>
<circle cx="188.28746191771668" cy="236.08563602824722" r="4" fill="#0072BD"/>
<circle cx="241.52069821687255" cy="209.67933071232926" r="4" fill="#0072BD"/>
<circle cx="395.37444019259635" cy="131.80197134286087" r="4" fill="#0072BD"/>
<circle cx="499.0322886973137" cy="101.81818181818181" r="4" fill="#0072BD"/>
<text x="499.0322886973137" y="91.81818181818181" font-family="Arial" font-size="10" text-anchor="middle">N=2200</text>
<polyline points="80.0,318.0771022377909 80.77339456503292,316.35543796232463 82.24590256479375,313.34811529933484 84.67105556903114,309.602936518288 88.24809067724959,304.9298477705938 100.0487183780761,292.43101231623467 119.19106008284021,279.66386554621846 147.88796954836099,260.1889358847752 188.28746191771668,236.08563602824722 241.52069821687255,209.67933071232926 395.37444019259635,131.80197134286087 499.0322886973137,101.81818181818181" fill="none" stroke="#0072BD" stroke-width="2"/>
<line x1="80.0" y1="320" x2="80.0" y2="325" stroke="black"/>
<text x="80.0" y="340" font-family="Arial" font-size="10" text-anchor="middle">1.2e+06</text>
<line x1="190.0" y1="320" x2="190.0" y2="325" stroke="black"/>
<text x="190.0" y="340" font-family="Arial" font-size="10" text-anchor="middle">4.2e+08</text>
<line x1="300.0" y1="320" x2="300.0" y2="325" stroke="black"/>
<text x="300.0" y="340" font-family="Arial" font-size="10" text-anchor="middle">8.4e+08</text>
<line x1="410.0" y1="320" x2="410.0" y2="325" stroke="black"/>
<text x="410.0" y="340" font-family="Arial" font-size="10" text-anchor="middle">1.3e+09</text>
<line x1="520.0" y1="320" x2="520.0" y2="325" stroke="black"/>
<text x="520.0" y="340" font-family="Arial" font-size="10" text-anchor="middle">1.7e+09</text>
<line x1="80" y1="320.0" x2="75" y2="320.0" stroke="black"/>
<text x="70" y="324.0" font-family="Arial" font-size="12" text-anchor="end">0.0</text>
<line x1="80" y1="272.0" x2="75" y2="272.0" stroke="black"/>
<text x="70" y="276.0" font-family="Arial" font-size="12" text-anchor="end">0.4</text>
<line x1="80" y1="224.0" x2="75" y2="224.0" stroke="black"/>
<text x="70" y="228.0" font-family="Arial" font-size="12" text-anchor="end">0.9</text>
<line x1="80" y1="176.0" x2="75" y2="176.0" stroke="black"/>
<text x="70" y="180.0" font-family="Arial" font-size="12" text-anchor="end">1.3</text>
<line x1="80" y1="128.0" x2="75" y2="128.0" stroke="black"/>
<text x="70" y="132.0" font-family="Arial" font-size="12" text-anchor="end">1.7</text>
<line x1="80" y1="80.0" x2="75" y2="80.0" stroke="black"/>
<text x="70" y="84.0" font-family="Arial" font-size="12" text-anchor="end">2.1</text>
<text x="300.0" y="395" font-family="Arial" font-size="12" text-anchor="middle">Theoretical Complexity: N * (N + K)</text>
<text x="20" y="200.0" font-family="Arial" font-size="12" text-anchor="middle" transform="rotate(-90 20, 200.0)">Time (s)</text>
<text x="300.0" y="30" font-family="Arial" font-size="16" text-anchor="middle">Time vs Complexity (Linear)</text>
</svg>